<?xml version="1.0" encoding="UTF-8" standalone="no"?><!-- Generator: Gravit.io --><svg xmlns="http://www.w3.org/2000/svg" xmlns:xlink="http://www.w3.org/1999/xlink" style="isolation:isolate" viewBox="0 0 128 128" width="128pt" height="128pt"><defs><clipPath id="_clipPath_AKk0hjwVmk7vP9lemSG4QRaYKgAmJhKC"><rect width="128" height="128"/></clipPath></defs><g clip-path="url(#_clipPath_AKk0hjwVmk7vP9lemSG4QRaYKgAmJhKC)"><path d=" M 63.547 56.733 L 101.304 56.733 C 103.199 56.733 104.736 58.297 104.736 60.228 L 104.736 98.692 C 104.736 100.623 103.199 102.187 101.304 102.187 L 63.547 102.187 C 61.652 102.187 60.114 100.623 60.114 98.692 L 60.114 60.228 C 60.114 58.297 61.652 56.733 63.547 56.733 Z " fill="rgb(0,0,0)"/><path d=" M 67.886 54.36 L 67.886 29.308 C 67.886 27.377 66.348 25.813 64.453 25.813 L 26.696 25.813 C 24.801 25.813 23.264 27.377 23.264 29.308 L 23.264 67.772 C 23.264 69.703 24.801 71.267 26.696 71.267 L 57.741 71.267 L 57.741 57.855 C 57.741 55.924 59.278 54.36 61.174 54.36 L 67.886 54.36 Z " fill="rgb(0,0,0)"/></g></svg>