<?xml version="1.0" encoding="UTF-8" standalone="no"?><!-- Generator: Gravit.io --><svg xmlns="http://www.w3.org/2000/svg" xmlns:xlink="http://www.w3.org/1999/xlink" style="isolation:isolate" viewBox="0 0 128 128" width="128pt" height="128pt"><defs><clipPath id="_clipPath_gAl8GpqMQifr1r1oydqINueVExFgCBDm"><rect width="128" height="128"/></clipPath></defs><g clip-path="url(#_clipPath_gAl8GpqMQifr1r1oydqINueVExFgCBDm)"><path d=" M 27.991 18.508 L 100.01 18.508 C 103.626 18.508 106.557 21.64 106.557 25.504 L 106.557 102.497 C 106.557 106.361 103.626 109.492 100.01 109.492 L 27.991 109.492 C 24.375 109.492 21.443 106.361 21.443 102.497 L 21.443 25.504 C 21.443 21.64 24.375 18.508 27.991 18.508 Z  M 40.075 33.774 L 87.926 33.774 C 90.328 33.774 92.276 35.855 92.276 38.422 L 92.276 89.578 C 92.276 92.145 90.328 94.226 87.926 94.226 L 40.075 94.226 C 37.672 94.226 35.724 92.145 35.724 89.578 L 35.724 38.422 C 35.724 35.855 37.672 33.774 40.075 33.774 Z " fill-rule="evenodd" fill="rgb(0,0,0)"/><path d=" M 44.608 39.501 L 83.393 39.501 C 85.34 39.501 86.918 41.188 86.918 43.268 L 86.918 84.732 C 86.918 86.813 85.34 88.499 83.393 88.499 L 44.608 88.499 C 42.66 88.499 41.082 86.813 41.082 84.732 L 41.082 43.268 C 41.082 41.188 42.66 39.501 44.608 39.501 Z " fill="rgb(0,0,0)"/></g></svg>